# xmcd
#
# Track frame offsets:
#	150
#	12253
#	22255
#	36675
#	47266
#	57150
#	67290
#	75437
#	86948
#	93861
#	103125
#	119419
#	132010
#	144010
#	150574
#	161340
#	176116
#	190747
#	205640
#	212514
#
# Disc length: 2930
#
# Revision: 1
# Processed by: cddbd v1.5.2PL0 Copyright (c) Steve Scherf et al.
# Submitted via: kJams Pro 1.0a1.17
#
DISCID=0c0b7014
DTITLE=Unknown Artist - 100 Hits – Christmas Disc 4
DYEAR=2000
DGENRE=Various
TTITLE0=Andy Williams - It's the most wonderful time of the year
TTITLE1=Brenda Lee - Rockin around the Christmas Tree
TTITLE2=Bing Crosby - White Christmas
TTITLE3=Elvis Presley - Blue Christmas
TTITLE4=Traditional - I saw Mommy kissing santa claus
TTITLE5=Brenda Lee - Jingle Bell Rock
TTITLE6=Perry Como - It's beggining to look a lot like Christmas
TTITLE7=Darlene Love - Winter Wonderland
TTITLE8=Traditional - All I want for christmas is my two front teeth
TTITLE9=Traditional - When Santa got stuck up the chimney
TTITLE10=elmo and patsy - Gradma got run over by a reindeer
TTITLE11=Gayla Peeveey - I want a hippopotamus for Christmas
TTITLE12=Traditional - Jingle Bells
TTITLE13=Traditional - Little Donkey
TTITLE14=Dean Martin - Rudolph the red nose reindeer
TTITLE15=Bing Crosby - Silver Bells
TTITLE16=Nat King Cole - The Christmas Song
TTITLE17=Aled Jones - Wlaking in the air
TTITLE18=Traditional - We three kings
TTITLE19=Traditional - We wish you a merry christmas
EXTD=
EXTT0=
EXTT1=
EXTT2=
EXTT3=
EXTT4=
EXTT5=
EXTT6=
EXTT7=
EXTT8=
EXTT9=
EXTT10=
EXTT11=
EXTT12=
EXTT13=
EXTT14=
EXTT15=
EXTT16=
EXTT17=
EXTT18=
EXTT19=
PLAYORDER=
